<?xml version="1.0" standalone="no"?>
<!DOCTYPE svg PUBLIC "-//W3C//DTD SVG 20010904//EN"
 "http://www.w3.org/TR/2001/REC-SVG-20010904/DTD/svg10.dtd">
<svg version="1.0" xmlns="http://www.w3.org/2000/svg"
 width="3264.000000pt" height="2173.000000pt" viewBox="0 0 3264.000000 2173.000000"
 preserveAspectRatio="xMidYMid meet">

<g transform="translate(0.000000,2173.000000) scale(0.100000,-0.100000)"
fill="#000000" stroke="none">
<path d="M9500 15631 c0 -5 6 -12 13 -14 6 -3 3 -6 -8 -7 -20 -1 -20 -1 -1
-15 25 -19 55 -19 62 -1 3 8 17 17 30 20 14 4 22 11 19 16 -8 13 -115 13 -115
1z"/>
<path d="M9875 15615 c24 -19 30 -32 30 -64 0 -28 3 -37 11 -30 7 6 14 1 21
-14 9 -19 7 -27 -13 -46 -13 -13 -24 -28 -24 -34 0 -6 -7 -2 -15 9 -8 10 -15
14 -15 8 0 -7 -9 -14 -21 -17 -18 -5 -19 -8 -8 -29 6 -13 8 -20 4 -16 -5 4
-14 3 -21 -3 -18 -15 -112 -23 -175 -15 -43 6 -58 13 -74 34 -15 22 -16 24 -2
13 10 -8 20 -11 24 -7 4 3 -2 13 -13 22 -10 8 -13 13 -6 9 16 -8 15 0 -3 35
-9 18 -24 30 -35 30 -23 0 -32 13 -24 35 6 14 8 14 26 -1 10 -10 28 -33 39
-51 11 -18 25 -33 30 -33 19 0 7 19 -48 73 -46 45 -64 57 -90 57 -32 0 -55
-16 -74 -51 -5 -11 -14 -17 -20 -14 -5 4 -18 -13 -28 -37 -10 -24 -28 -63 -40
-88 -48 -99 -49 -272 -2 -339 10 -14 21 -36 25 -48 11 -36 108 -127 167 -156
119 -59 236 -70 377 -36 72 17 94 27 129 60 23 21 47 39 53 39 6 0 27 26 47
58 20 31 40 59 44 62 39 27 46 194 13 360 -1 8 -3 23 -3 33 -1 10 -12 22 -24
26 -13 5 -29 23 -36 39 -7 16 -24 36 -39 43 -15 8 -30 19 -35 26 -4 6 -22 16
-40 22 -18 6 -37 21 -42 33 -8 18 -19 23 -55 25 l-45 3 30 -25z m-331 -137
c-3 -4 -9 -8 -15 -8 -5 0 -9 4 -9 8 0 5 7 9 15 9 8 0 12 -4 9 -9z m-64 -48
c12 -7 12 -10 1 -10 -7 0 -11 -6 -8 -14 4 -11 -1 -12 -21 -7 -43 12 -39 30 8
40 3 0 12 -4 20 -9z m470 -15 c7 -9 8 -15 2 -15 -5 0 -12 7 -16 15 -3 8 -4 15
-2 15 2 0 9 -7 16 -15z m50 5 c-19 -13 -30 -13 -30 0 0 6 10 10 23 10 18 0 19
-2 7 -10z m17 -26 c-3 -3 -12 -4 -19 -1 -8 3 -5 6 6 6 11 1 17 -2 13 -5z"/>
<path d="M7276 15571 c-17 -6 -15 -9 13 -21 18 -7 43 -28 57 -45 14 -18 36
-36 49 -39 13 -3 33 -20 45 -36 12 -17 28 -30 35 -30 13 0 31 -15 123 -103 19
-17 40 -45 47 -62 7 -16 43 -61 79 -99 36 -38 66 -73 66 -77 0 -4 18 -29 40
-55 22 -27 40 -54 40 -61 0 -7 9 -20 20 -30 10 -10 44 -70 75 -133 32 -63 65
-126 75 -140 10 -14 21 -41 25 -60 4 -19 18 -51 30 -70 13 -20 30 -65 39 -101
9 -35 27 -86 41 -114 13 -27 29 -79 34 -115 12 -73 22 -108 45 -162 8 -20 23
-94 31 -165 9 -70 22 -153 30 -183 21 -85 33 -192 39 -345 11 -269 8 -3809 -3
-3837 -5 -14 -19 -29 -30 -33 -24 -7 -61 2 -61 15 0 5 -13 24 -28 42 -15 18
-36 53 -47 78 -10 25 -28 54 -40 66 -12 11 -28 37 -34 57 -7 19 -18 38 -26 41
-8 3 -26 30 -40 60 -14 30 -32 57 -40 60 -8 2 -19 24 -26 48 -7 24 -25 53 -41
66 -15 13 -28 30 -28 37 0 27 -22 63 -45 73 -15 7 -25 23 -29 46 -4 22 -16 42
-31 52 -14 9 -25 23 -25 30 0 8 -4 14 -10 14 -5 0 -10 11 -10 24 0 12 -13 37
-29 54 -17 17 -35 48 -42 70 -7 24 -20 44 -34 50 -13 6 -25 23 -28 41 -4 17
-16 39 -27 48 -21 18 -60 91 -60 113 0 6 -10 15 -23 21 -15 7 -28 26 -36 55
-8 25 -26 58 -42 74 -16 16 -29 38 -29 50 0 11 -10 31 -23 43 -13 12 -34 45
-47 74 -12 28 -32 55 -44 61 -12 5 -26 27 -33 49 -7 22 -26 55 -43 73 -16 17
-30 38 -30 45 0 8 -11 27 -24 42 -14 16 -31 49 -38 73 -7 23 -25 54 -40 69
-16 14 -28 34 -28 44 0 10 -15 37 -33 60 -19 23 -40 58 -47 77 -8 19 -21 40
-29 47 -9 6 -25 28 -36 50 -10 21 -31 54 -46 73 -14 19 -30 46 -34 60 -4 14
-16 31 -26 38 -11 7 -19 21 -19 31 0 10 -6 24 -14 30 -8 7 -17 23 -20 36 -3
13 -15 29 -26 35 -12 6 -25 33 -36 70 -9 33 -22 60 -29 60 -7 0 -23 19 -35 43
-12 23 -30 56 -41 72 -23 36 -26 43 -33 76 -3 14 -17 31 -30 39 -17 9 -30 30
-42 65 -11 37 -23 56 -40 64 -16 7 -24 19 -24 34 0 14 -13 40 -30 58 -16 19
-36 54 -43 79 -9 31 -21 49 -38 57 -17 8 -30 27 -39 55 -7 24 -21 50 -30 58
-9 9 -23 32 -29 52 -7 21 -21 40 -32 43 -20 7 -49 53 -49 78 0 8 -16 28 -35
46 -21 19 -35 41 -35 55 0 13 -7 29 -15 36 -8 7 -15 19 -15 26 0 8 -4 14 -8
14 -9 0 -22 24 -42 78 -7 17 -18 32 -25 32 -17 0 -45 55 -45 87 0 16 -7 27
-19 30 -11 3 -26 22 -35 43 -8 21 -26 50 -41 65 -14 16 -29 44 -35 64 -5 21
-23 49 -39 65 -16 15 -31 41 -35 57 -3 16 -17 41 -32 56 -14 14 -31 40 -37 57
-6 16 -25 44 -42 62 -19 19 -35 47 -39 68 -5 26 -14 40 -31 46 -15 6 -27 22
-33 43 -5 18 -21 45 -36 60 -15 15 -26 37 -26 52 0 15 -11 36 -26 50 -15 14
-38 48 -51 77 -13 29 -33 61 -44 71 -10 10 -19 27 -19 39 0 11 -16 38 -35 59
-19 22 -35 48 -35 59 0 12 -16 36 -35 56 -21 20 -35 45 -35 59 0 13 -10 31
-21 39 -29 20 -59 66 -59 92 0 12 -11 26 -25 34 -14 7 -25 19 -25 26 0 18 -31
73 -57 99 -12 12 -27 40 -33 62 -7 22 -21 43 -33 49 -14 6 -26 27 -35 62 -11
40 -21 56 -39 63 -12 4 -23 15 -23 24 0 19 -17 48 -49 83 -13 15 -29 43 -35
62 -7 24 -18 36 -32 38 -17 2 -25 16 -38 63 -16 55 -19 59 -47 59 -28 0 -29
-1 -29 -51 0 -47 2 -52 30 -62 17 -6 30 -19 30 -28 0 -30 -30 -44 -99 -45 -36
-1 -76 -4 -88 -7 -30 -8 -65 3 -59 19 3 9 0 11 -12 7 -15 -6 -15 -4 -4 10 29
34 -12 51 -43 17 -11 -12 -31 -20 -51 -20 -18 0 -35 -4 -38 -8 -9 -15 -65 -1
-59 14 3 8 0 14 -7 14 -8 0 -4 13 10 36 11 20 19 43 16 51 -3 8 -2 12 3 8 5
-3 16 -2 25 1 13 5 14 9 5 20 -9 11 -6 14 20 14 21 0 34 6 38 18 3 9 15 25 25
35 24 23 84 14 93 -14 4 -10 11 -19 16 -19 11 0 12 17 2 23 -5 2 -1 2 7 -1 33
-11 125 -19 133 -12 5 4 7 20 5 36 l-3 28 -90 -3 c-49 -1 -91 -6 -93 -11 -2
-4 -17 -4 -35 1 -18 5 -53 10 -79 11 -27 2 -48 5 -48 8 0 3 -16 7 -36 8 -20 2
-43 9 -51 17 -22 23 -64 19 -70 -6 -3 -11 -11 -18 -19 -15 -7 3 -15 2 -18 -2
-2 -4 -1 -63 3 -132 6 -112 5 -128 -12 -152 -16 -24 -19 -54 -23 -230 -8 -340
-8 -6270 0 -6315 7 -40 10 -43 49 -51 59 -12 1010 -7 1032 5 17 10 16 11 -3
29 -11 11 -59 57 -106 104 -128 129 -213 213 -233 232 -10 9 -23 23 -30 30 -6
7 -23 24 -37 37 -14 13 -26 33 -26 46 0 13 -11 30 -25 39 -14 10 -31 29 -37
44 -7 15 -26 47 -44 72 -18 25 -36 58 -39 72 -4 15 -15 30 -24 33 -10 3 -23
23 -29 44 -7 21 -22 53 -35 72 -13 19 -31 58 -40 86 -10 29 -28 68 -41 88 -13
19 -27 54 -31 78 -6 44 -21 81 -41 107 -12 16 -29 85 -39 160 -3 25 -14 60
-25 77 -13 22 -23 67 -30 140 -6 59 -20 142 -31 183 -14 51 -24 129 -29 245
-8 158 -5 2582 5 3684 4 423 7 487 21 509 9 13 19 20 23 16 38 -44 101 -135
101 -147 0 -8 10 -25 23 -38 13 -13 33 -45 45 -72 12 -26 30 -55 40 -66 9 -10
30 -40 45 -67 15 -27 42 -72 60 -100 18 -28 41 -65 52 -83 11 -19 37 -59 57
-90 21 -31 38 -60 38 -65 0 -4 11 -22 25 -38 14 -17 35 -49 47 -72 11 -22 24
-43 28 -46 4 -3 17 -23 28 -46 11 -22 28 -47 37 -54 9 -8 30 -39 46 -69 17
-31 48 -81 69 -111 22 -30 50 -73 61 -95 12 -22 33 -53 46 -70 28 -34 79 -112
108 -165 11 -20 30 -50 41 -66 12 -16 24 -39 28 -51 4 -11 22 -41 41 -65 19
-23 35 -48 35 -55 0 -6 11 -24 24 -40 13 -15 33 -48 46 -73 12 -25 29 -53 37
-62 20 -22 48 -71 80 -138 14 -30 34 -64 44 -75 9 -11 30 -43 46 -72 15 -29
54 -90 86 -137 31 -47 57 -90 57 -97 0 -6 10 -24 23 -39 12 -15 35 -50 50 -76
15 -27 42 -72 60 -100 18 -28 41 -65 52 -84 11 -18 35 -54 53 -81 17 -27 32
-51 32 -54 0 -3 15 -27 33 -53 17 -26 41 -66 51 -90 10 -23 23 -42 27 -42 5 0
21 -24 35 -52 15 -29 37 -66 50 -81 13 -16 24 -34 24 -41 0 -7 10 -21 21 -32
12 -10 33 -44 47 -74 13 -30 33 -66 44 -80 30 -39 108 -163 108 -172 0 -4 16
-28 35 -54 19 -25 35 -52 35 -59 0 -8 13 -29 28 -47 16 -18 36 -50 45 -70 10
-20 22 -40 27 -43 6 -4 22 -30 36 -58 15 -29 32 -59 39 -67 7 -8 36 -60 65
-115 29 -55 63 -113 76 -128 13 -16 24 -34 24 -41 0 -7 16 -34 35 -59 19 -25
35 -50 35 -55 0 -5 16 -33 35 -61 19 -28 35 -55 35 -59 0 -5 18 -36 40 -68 22
-33 40 -64 40 -71 0 -6 11 -24 24 -40 13 -15 33 -48 46 -73 13 -25 33 -58 46
-73 13 -16 24 -34 24 -41 0 -7 11 -23 24 -35 14 -13 30 -37 37 -54 7 -18 28
-52 46 -76 18 -24 33 -48 33 -54 0 -5 15 -30 34 -56 18 -25 39 -58 47 -72 19
-35 73 -118 97 -149 10 -14 27 -41 37 -60 10 -19 28 -48 41 -63 13 -16 24 -33
24 -39 0 -6 12 -27 27 -47 34 -44 123 -189 123 -200 0 -5 16 -28 35 -52 19
-24 37 -56 40 -71 4 -15 13 -32 21 -39 9 -7 26 -34 40 -60 13 -26 30 -52 37
-56 8 -4 24 -28 38 -53 13 -25 27 -46 32 -48 4 -2 7 -8 7 -14 0 -6 12 -27 27
-46 l26 -35 216 7 c119 4 220 12 225 17 6 5 9 75 9 156 -1 82 -2 1422 -4 2978
-2 3051 -6 3409 -32 3490 -9 28 -15 57 -12 65 2 8 1 31 -3 50 -5 23 -3 44 5
61 12 23 10 31 -13 73 -23 42 -29 46 -53 41 -14 -3 -59 -6 -99 -7 -70 -2 -72
-3 -40 -14 33 -12 33 -12 5 -13 -39 -1 -98 -28 -96 -43 3 -27 -2 -38 -22 -48
-15 -9 -24 -8 -35 1 -11 9 -14 9 -14 0 0 -7 -5 -9 -11 -5 -8 5 -8 9 1 14 8 5
4 18 -15 46 -36 53 -38 54 -20 8 l16 -39 -20 25 c-12 14 -23 33 -27 43 -3 9
-10 17 -15 17 -6 0 -8 -4 -5 -8 2 -4 -6 -8 -19 -8 -13 0 -21 4 -19 8 3 5 10 5
16 2 6 -4 8 -2 4 4 -3 6 -37 11 -74 12 -37 1 -105 3 -152 4 -322 13 -427 14
-444 7z m884 -130 c0 -32 -41 -69 -84 -76 -34 -5 -37 -3 -26 10 7 8 16 12 21
9 5 -3 9 0 9 5 0 6 -7 11 -17 11 -28 0 -3 15 28 16 18 1 36 10 45 23 19 26 24
26 24 2z m29 -7 c-10 -13 -10 -17 1 -24 7 -4 22 -7 32 -5 10 2 16 0 13 -5 -3
-5 -14 -7 -25 -5 -12 2 -21 -3 -25 -14 -8 -28 -44 -56 -70 -56 -13 -1 -21 3
-18 9 4 5 -1 7 -11 3 -12 -5 -16 -3 -13 5 2 7 12 13 23 13 28 1 42 12 70 56
13 21 27 39 30 39 4 0 1 -7 -7 -16z m24 -74 c-3 -10 -12 -25 -20 -32 -18 -15
-45 -20 -37 -7 3 5 9 7 14 4 5 -3 16 8 25 25 18 34 25 39 18 10z m-86 -66 c-3
-3 -12 -4 -19 -1 -8 3 -5 6 6 6 11 1 17 -2 13 -5z"/>
<path d="M8166 15393 c-4 -11 -16 -30 -28 -43 -12 -13 -15 -21 -7 -18 16 5 54
66 46 74 -3 3 -8 -3 -11 -13z"/>
<path d="M22365 14109 c-266 -18 -349 -29 -402 -54 -28 -13 -78 -29 -110 -35
-32 -7 -76 -22 -98 -35 -22 -12 -63 -30 -90 -38 -28 -8 -68 -26 -89 -41 -21
-14 -56 -31 -77 -38 -21 -6 -48 -22 -60 -34 -13 -13 -28 -24 -35 -24 -6 0 -38
-20 -70 -45 -31 -25 -63 -45 -71 -45 -7 0 -18 -9 -25 -21 -7 -11 -30 -29 -50
-40 -21 -11 -38 -25 -38 -33 0 -7 -11 -18 -24 -24 -14 -6 -35 -25 -47 -41 -13
-17 -28 -31 -35 -31 -7 0 -26 -17 -41 -37 -15 -20 -45 -53 -67 -73 -21 -19
-46 -44 -55 -54 -9 -11 -31 -33 -48 -50 -18 -16 -33 -36 -33 -43 0 -8 -16 -29
-35 -49 -19 -19 -35 -39 -35 -44 0 -5 -14 -25 -30 -44 -17 -18 -37 -50 -45
-69 -8 -20 -19 -38 -25 -42 -5 -3 -21 -29 -35 -58 -14 -29 -32 -57 -39 -62 -8
-6 -20 -30 -27 -54 -7 -24 -23 -50 -35 -57 -15 -10 -24 -29 -29 -59 -4 -29
-18 -58 -40 -85 -20 -23 -36 -56 -40 -81 -7 -41 -17 -63 -47 -109 -9 -14 -22
-54 -29 -90 -7 -36 -25 -92 -41 -126 -15 -34 -28 -74 -28 -91 0 -16 -13 -77
-30 -136 -28 -101 -42 -173 -55 -297 -9 -91 -16 -140 -33 -240 -13 -81 -6
-418 11 -520 15 -91 18 -119 33 -295 4 -44 19 -116 34 -160 15 -44 31 -105 34
-134 4 -30 18 -79 32 -109 14 -30 29 -78 35 -105 5 -28 25 -84 44 -124 19 -41
35 -78 35 -83 0 -14 89 -200 110 -230 9 -14 23 -42 29 -62 7 -21 18 -41 25
-45 7 -5 27 -34 45 -65 18 -32 36 -58 41 -58 4 0 15 -17 23 -37 8 -21 27 -49
41 -62 14 -14 26 -27 26 -31 0 -25 241 -263 352 -348 24 -18 57 -43 74 -57 16
-13 52 -35 79 -50 27 -14 56 -32 65 -39 8 -8 40 -25 71 -39 31 -14 59 -30 63
-36 4 -6 29 -17 56 -25 27 -8 68 -26 92 -40 24 -13 77 -33 118 -44 41 -11 94
-27 118 -36 24 -9 89 -23 145 -31 56 -8 145 -22 197 -31 128 -21 362 -29 490
-16 239 25 464 63 505 86 22 13 69 29 105 35 36 7 88 25 116 41 28 16 70 33
93 40 23 6 58 22 78 35 19 14 54 30 77 36 22 6 50 19 61 29 11 10 40 28 65 40
25 13 58 33 73 46 16 13 34 24 41 24 7 0 27 16 45 35 17 19 38 35 47 35 16 0
37 19 188 165 101 98 266 284 266 299 0 6 14 23 30 38 17 14 30 35 30 47 0 11
8 26 18 33 11 7 26 36 36 64 9 28 28 62 41 74 25 24 32 63 16 88 -6 11 -13 8
-29 -12 -11 -14 -27 -26 -35 -26 -9 0 -21 -20 -32 -52 -9 -29 -22 -57 -29 -63
-7 -5 -20 -24 -29 -41 -17 -33 -150 -170 -231 -239 -26 -22 -68 -59 -94 -83
-26 -23 -57 -45 -69 -48 -12 -3 -24 -12 -27 -19 -3 -8 -26 -23 -51 -34 -26
-11 -60 -32 -77 -46 -16 -14 -39 -25 -51 -25 -12 0 -41 -14 -65 -30 -24 -16
-69 -34 -100 -41 -31 -7 -77 -23 -102 -35 -44 -21 -113 -37 -220 -49 -30 -4
-80 -15 -110 -26 -64 -22 -210 -35 -465 -40 -387 -8 -472 0 -421 37 12 8 14
14 6 19 -6 4 -17 2 -24 -5 -9 -6 -15 -7 -18 -1 -1 5 -36 11 -76 13 l-72 3 -6
33 c-5 27 -10 33 -25 29 -11 -3 -21 -1 -24 3 -6 10 -116 7 -133 -4 -7 -4 -12
-2 -12 4 0 6 -5 8 -12 4 -7 -4 -8 -3 -4 4 4 7 13 12 21 12 20 0 30 40 14 51
-18 11 -40 11 -58 0 -23 -14 -39 -2 -45 35 -6 30 -12 35 -54 47 -36 11 -48 19
-50 36 -4 24 -8 26 -64 36 -29 4 -38 11 -38 25 0 10 -12 27 -27 37 -14 10 -42
33 -61 51 -19 18 -43 37 -53 43 -11 5 -19 15 -19 21 0 5 -31 40 -69 77 -37 36
-80 84 -94 106 -13 22 -36 51 -51 64 -14 14 -26 32 -26 42 0 9 -11 24 -25 33
-13 9 -32 31 -41 49 -9 17 -30 48 -45 67 -16 19 -29 44 -29 57 0 12 -11 30
-23 40 -13 10 -32 43 -42 73 -9 30 -26 65 -37 76 -11 12 -28 51 -39 87 -11 37
-25 72 -33 79 -16 16 -36 74 -36 103 0 12 -13 47 -30 78 -17 33 -34 86 -41
129 -7 40 -20 91 -30 113 -22 50 -26 69 -44 230 -13 113 -21 170 -24 170 -1 0
-3 38 -5 85 -2 47 -9 114 -15 150 -13 81 -14 210 -1 245 5 14 21 30 36 35 17
7 706 11 1958 13 1691 2 1935 4 1951 17 16 13 17 28 11 150 -6 141 -27 281
-52 363 -9 27 -24 105 -34 173 -11 68 -24 131 -29 141 -24 44 -40 93 -51 158
-7 39 -20 84 -30 100 -10 17 -21 52 -24 78 -5 31 -17 59 -35 80 -15 18 -33 54
-40 82 -7 27 -20 55 -30 61 -9 7 -26 32 -37 56 -10 23 -33 55 -51 71 -17 15
-33 38 -35 50 -2 12 -13 26 -25 32 -12 5 -24 18 -27 30 -6 24 -163 189 -189
198 -9 4 -20 15 -24 24 -9 23 -23 37 -46 46 -9 3 -22 18 -27 31 -6 16 -21 28
-42 34 -23 6 -34 15 -38 33 -4 15 -17 28 -36 34 -16 6 -39 19 -50 31 -11 11
-41 29 -67 40 -25 10 -50 28 -56 40 -6 14 -22 23 -49 28 -24 3 -56 20 -80 40
-25 20 -57 36 -82 40 -23 4 -67 20 -98 36 -32 16 -82 32 -112 36 -30 4 -67 13
-81 20 -108 54 -474 91 -734 73z m345 -94 c30 -9 89 -24 131 -34 41 -9 89 -27
106 -39 16 -11 56 -31 89 -43 32 -12 73 -33 90 -46 17 -12 36 -23 42 -23 6 0
18 -13 27 -30 9 -16 20 -31 25 -31 6 -1 14 -2 19 -3 26 -4 321 -309 321 -332
0 -5 9 -17 20 -29 29 -29 85 -113 110 -165 12 -25 30 -54 40 -65 10 -11 28
-45 40 -75 12 -30 28 -62 36 -71 9 -10 21 -40 29 -68 7 -28 25 -72 40 -96 14
-25 31 -73 36 -107 6 -34 19 -87 29 -119 23 -68 40 -201 45 -360 5 -158 -5
-225 -37 -252 -14 -12 -33 -42 -41 -67 -9 -25 -37 -66 -63 -92 -53 -55 -123
-85 -234 -100 -45 -6 -613 -12 -1440 -15 -1504 -6 -1426 -9 -1451 54 -7 19 -9
91 -6 214 4 166 7 190 25 215 14 21 24 65 36 159 10 75 25 148 37 175 11 25
27 81 35 124 8 48 23 94 38 116 13 21 27 58 31 83 4 25 18 61 31 78 13 18 33
56 43 85 11 28 31 68 45 88 13 20 30 53 36 71 6 19 16 35 21 35 5 0 20 22 34
49 30 60 102 158 121 165 7 3 20 20 27 39 8 18 26 41 41 50 14 10 26 24 26 31
0 7 13 19 30 26 16 7 38 27 49 46 11 19 27 34 35 34 9 0 22 11 31 24 8 12 38
35 65 50 27 15 52 31 55 35 8 13 176 97 210 105 17 4 55 20 86 36 34 18 84 32
132 39 43 6 91 18 106 26 72 36 461 44 571 10z m-415 -5045 c3 -5 1 -10 -4
-10 -6 0 -11 5 -11 10 0 6 2 10 4 10 3 0 8 -4 11 -10z"/>
<path d="M12933 14094 c-105 -10 -157 -20 -200 -38 -32 -13 -87 -30 -123 -36
-36 -7 -76 -20 -90 -29 -45 -29 -71 -41 -113 -52 -23 -6 -49 -17 -57 -25 -18
-16 -122 -73 -197 -109 -29 -13 -57 -33 -62 -43 -6 -11 -22 -23 -36 -26 -14
-4 -43 -22 -64 -41 -20 -19 -50 -39 -64 -44 -15 -6 -27 -17 -27 -26 0 -8 -18
-26 -40 -40 -22 -14 -40 -29 -40 -35 0 -5 -14 -17 -30 -27 -17 -10 -33 -28
-36 -40 -4 -13 -10 -23 -16 -23 -9 0 -97 -89 -158 -160 -16 -19 -42 -49 -58
-66 -15 -17 -32 -42 -38 -55 -6 -13 -28 -44 -48 -67 -20 -24 -36 -49 -36 -56
0 -7 -13 -25 -30 -41 -16 -15 -32 -41 -35 -56 -4 -16 -22 -47 -41 -70 -19 -22
-34 -48 -34 -57 0 -8 -10 -29 -23 -46 -13 -17 -36 -64 -52 -104 -16 -40 -34
-77 -42 -83 -7 -6 -13 -20 -13 -30 0 -30 -31 -113 -50 -134 -10 -11 -21 -38
-25 -60 -11 -65 -34 -137 -49 -154 -7 -9 -23 -74 -35 -145 -12 -71 -28 -143
-36 -162 -41 -99 -63 -582 -42 -967 7 -146 12 -176 42 -312 8 -38 24 -117 35
-175 11 -58 26 -120 35 -137 8 -17 24 -65 35 -108 11 -43 26 -86 34 -94 7 -9
23 -45 35 -80 12 -35 30 -80 41 -100 10 -20 41 -84 70 -143 28 -59 55 -110 61
-113 5 -4 23 -32 40 -63 33 -63 85 -139 112 -166 9 -10 17 -20 17 -24 0 -4 20
-29 45 -57 24 -27 45 -54 45 -59 0 -5 56 -65 125 -132 113 -112 278 -247 366
-299 114 -68 149 -88 189 -106 25 -12 74 -34 109 -51 35 -16 88 -34 119 -39
30 -6 65 -17 77 -25 35 -23 79 -33 234 -54 79 -11 162 -25 185 -32 27 -8 133
-12 311 -12 219 0 284 3 345 16 41 10 116 22 165 28 103 12 149 25 187 51 14
11 36 19 49 19 43 0 154 33 184 55 17 12 49 27 73 34 23 6 58 23 78 36 19 13
52 29 72 36 20 6 46 19 57 29 11 10 43 29 71 43 27 14 56 33 64 42 7 9 27 23
44 32 17 9 42 27 56 40 57 53 104 93 111 93 8 0 147 139 204 205 22 26 55 62
73 80 17 19 32 38 32 43 0 6 15 29 34 51 19 23 39 56 45 74 7 19 23 44 37 56
13 12 27 35 30 51 4 16 19 44 35 61 29 33 34 54 23 96 -6 22 -8 21 -43 -15
-20 -20 -46 -57 -59 -82 -13 -25 -31 -52 -40 -60 -10 -8 -26 -28 -36 -45 -11
-16 -28 -36 -38 -43 -10 -7 -18 -20 -18 -27 0 -8 -12 -22 -27 -32 -16 -10 -57
-48 -94 -85 -36 -37 -70 -68 -76 -68 -7 0 -18 -8 -25 -19 -17 -24 -91 -83
-148 -118 -25 -15 -51 -35 -58 -45 -7 -9 -32 -22 -55 -28 -23 -7 -59 -23 -79
-37 -21 -14 -63 -31 -94 -39 -31 -7 -63 -19 -72 -27 -28 -23 -73 -36 -165 -47
-49 -6 -100 -18 -113 -27 -42 -27 -252 -42 -608 -43 -182 -1 -341 1 -354 3
-13 2 -33 15 -46 30 -18 21 -34 27 -88 33 -60 6 -65 9 -76 36 -13 36 -49 36
-44 0 2 -12 2 -22 0 -22 -14 0 -88 42 -88 50 0 6 -9 10 -21 10 -14 0 -24 10
-32 30 -9 24 -19 32 -49 36 -21 4 -43 13 -49 20 -6 8 -15 12 -19 9 -5 -3 -12
0 -16 6 -4 8 -3 9 4 5 16 -10 15 9 0 21 -7 6 -26 13 -42 17 -17 4 -45 21 -63
37 -19 16 -38 29 -43 29 -5 0 -17 14 -27 30 -9 17 -26 33 -38 36 -38 12 -243
215 -257 255 -5 15 -19 31 -30 35 -11 3 -26 21 -34 39 -7 19 -22 36 -33 40
-11 3 -22 19 -26 36 -4 16 -17 36 -29 45 -13 8 -31 33 -41 57 -11 23 -31 54
-47 69 -15 15 -28 38 -28 51 0 15 -13 34 -35 53 -23 19 -37 41 -41 64 -3 19
-15 50 -25 68 -10 18 -26 60 -35 95 -8 34 -23 70 -31 79 -8 9 -24 54 -34 98
-10 44 -26 91 -35 105 -8 13 -27 77 -40 142 -13 65 -31 132 -38 148 -15 32
-31 142 -47 325 -5 63 -14 142 -19 175 -41 253 -35 305 42 326 32 9 520 12
1953 11 1631 0 1913 2 1933 14 20 13 22 22 21 102 0 48 -4 123 -10 167 -5 44
-13 122 -18 173 -5 51 -16 103 -24 115 -14 22 -22 48 -33 112 -21 124 -28 152
-44 175 -10 14 -21 48 -25 75 -9 59 -31 118 -61 162 -12 17 -24 50 -28 72 -3
22 -17 52 -30 68 -13 16 -29 47 -35 69 -6 22 -24 53 -39 69 -16 17 -32 46 -36
67 -4 20 -13 38 -20 41 -15 6 -76 92 -76 108 0 5 -6 9 -14 9 -17 0 -49 47 -41
60 3 5 -8 16 -24 25 -17 8 -37 27 -44 41 -7 14 -24 31 -38 37 -13 7 -25 23
-27 36 -2 15 -15 28 -38 37 -19 8 -34 21 -34 29 0 9 -16 25 -36 37 -19 11 -40
31 -44 44 -6 14 -19 24 -37 26 -21 2 -29 10 -36 34 -7 24 -17 33 -52 43 -23 7
-55 26 -71 42 -15 16 -33 29 -40 29 -7 0 -25 13 -40 29 -15 16 -45 35 -68 42
-23 7 -53 26 -68 41 -14 15 -36 28 -49 28 -32 0 -90 22 -110 41 -9 9 -57 24
-108 33 -50 9 -115 28 -145 42 -107 49 -536 68 -853 38z m427 -64 c41 -6 102
-19 135 -29 33 -11 87 -24 119 -30 33 -6 76 -22 97 -35 21 -14 49 -28 64 -32
15 -4 47 -22 71 -40 24 -18 55 -36 69 -40 14 -3 29 -13 33 -21 5 -8 25 -24 44
-36 72 -43 298 -279 312 -325 4 -12 18 -34 32 -47 13 -13 24 -30 24 -38 0 -7
13 -26 30 -42 16 -15 35 -44 41 -64 7 -20 25 -52 40 -71 15 -19 32 -52 37 -72
6 -21 19 -50 30 -65 11 -15 27 -52 36 -82 9 -30 23 -65 32 -79 8 -13 26 -65
39 -115 13 -51 31 -109 40 -131 26 -60 47 -282 43 -444 -3 -142 -3 -144 -29
-165 -15 -12 -37 -45 -49 -74 -12 -29 -30 -55 -39 -58 -9 -3 -27 -21 -40 -40
-17 -25 -35 -38 -65 -45 -22 -6 -61 -18 -85 -27 -70 -25 -339 -31 -1646 -31
-909 -1 -1220 2 -1249 11 -68 21 -76 42 -77 204 -1 151 13 243 43 282 11 14
18 41 18 65 0 66 17 153 44 219 13 34 29 88 35 119 6 32 21 81 34 110 13 29
32 78 40 109 9 31 25 67 35 80 10 13 24 43 31 67 7 24 23 64 37 89 13 25 24
51 24 58 0 7 15 32 32 56 18 24 40 61 50 82 9 20 22 37 28 37 6 0 19 19 29 43
10 23 46 71 80 107 34 36 69 77 77 93 8 15 20 27 27 27 6 0 28 17 48 38 60 60
95 90 136 114 21 12 44 30 51 39 6 10 25 20 41 24 15 3 52 22 82 40 29 19 63
35 75 35 12 0 48 14 80 31 38 20 89 36 144 45 46 7 99 21 116 29 62 29 332 43
474 25z m-460 -4985 c0 -8 -4 -15 -10 -15 -5 0 -10 7 -10 15 0 8 5 15 10 15 6
0 10 -7 10 -15z m170 -86 c0 -6 -4 -7 -10 -4 -5 3 -10 11 -10 16 0 6 5 7 10 4
6 -3 10 -11 10 -16z"/>
<path d="M26700 14103 c-127 -7 -257 -26 -295 -43 -22 -10 -74 -26 -115 -35
-41 -10 -91 -28 -110 -40 -19 -13 -55 -29 -80 -36 -25 -7 -54 -20 -65 -29 -33
-28 -91 -60 -108 -60 -9 0 -21 -8 -26 -18 -5 -10 -22 -24 -38 -32 -33 -17
-126 -90 -132 -105 -2 -5 -28 -35 -58 -65 -30 -30 -74 -75 -98 -100 -25 -25
-45 -54 -45 -63 0 -10 -6 -20 -14 -23 -8 -3 -27 -31 -42 -62 -15 -31 -33 -60
-40 -65 -7 -4 -20 -33 -29 -65 -9 -31 -27 -73 -40 -92 -16 -23 -29 -65 -38
-126 -8 -50 -25 -113 -38 -140 -21 -46 -22 -63 -23 -254 -1 -165 2 -218 16
-270 10 -36 27 -105 39 -155 11 -49 28 -101 38 -115 10 -14 26 -49 35 -77 10
-29 22 -56 28 -59 5 -4 16 -21 23 -38 23 -53 116 -175 183 -239 103 -98 153
-140 187 -156 22 -10 51 -31 64 -45 14 -14 30 -26 37 -26 7 0 25 -11 41 -24
15 -13 44 -28 64 -35 19 -6 59 -27 89 -46 30 -19 59 -35 66 -35 6 0 41 -16 77
-35 36 -19 72 -35 79 -35 7 0 40 -13 73 -28 33 -16 96 -39 140 -52 44 -12 89
-29 100 -36 11 -7 42 -18 69 -24 28 -6 79 -24 115 -39 36 -16 82 -32 101 -36
19 -4 59 -18 89 -32 30 -13 82 -31 115 -40 34 -8 75 -23 91 -33 17 -10 61 -27
98 -39 38 -11 80 -30 94 -41 14 -11 34 -20 44 -20 10 0 51 -17 91 -38 40 -21
85 -42 100 -45 14 -4 39 -18 55 -31 15 -13 45 -31 65 -39 21 -9 50 -27 64 -41
15 -13 44 -32 65 -42 22 -9 39 -21 39 -25 0 -5 17 -17 38 -28 81 -41 295 -279
317 -351 4 -14 18 -44 31 -67 14 -24 29 -69 35 -100 6 -32 16 -67 24 -78 27
-43 37 -285 16 -387 -39 -188 -56 -245 -82 -282 -16 -21 -29 -46 -29 -55 0
-18 -59 -113 -90 -146 -10 -11 -28 -29 -38 -40 -18 -19 -67 -63 -141 -127 -17
-16 -36 -28 -42 -28 -6 0 -29 -15 -52 -34 -23 -19 -56 -38 -72 -42 -16 -4 -47
-20 -69 -35 -21 -16 -55 -31 -75 -35 -20 -4 -56 -17 -81 -30 -31 -16 -96 -32
-210 -50 -91 -14 -190 -30 -220 -35 -82 -13 -309 -9 -376 7 -54 13 -158 32
-211 39 -49 7 -90 19 -123 36 -19 11 -45 19 -57 19 -27 0 -107 34 -140 60 -14
11 -33 20 -43 20 -9 0 -41 18 -70 40 -29 22 -58 40 -63 40 -6 0 -25 11 -43 25
-18 14 -37 25 -41 25 -5 0 -35 22 -68 50 -32 27 -67 53 -77 56 -10 3 -18 12
-18 20 0 8 -4 14 -9 14 -14 0 -131 115 -131 128 0 11 -23 38 -112 136 -21 22
-40 53 -43 68 -4 18 -13 28 -24 28 -23 0 -48 29 -53 60 -3 22 -8 25 -44 26
-22 0 -47 4 -54 9 -10 6 -12 4 -7 -8 3 -9 3 -16 -1 -16 -24 4 -33 -3 -27 -20
3 -11 1 -22 -4 -26 -7 -3 -8 0 -5 9 3 9 1 16 -5 16 -6 0 -11 9 -11 19 0 13
-13 24 -40 35 -23 9 -43 23 -46 31 -9 22 -51 19 -59 -4 -3 -11 -19 -22 -34
-26 -19 -4 -34 -18 -47 -43 -11 -20 -23 -35 -26 -32 -9 7 -58 -41 -58 -57 0
-7 -9 -18 -20 -25 -28 -18 -25 -36 14 -115 61 -121 284 -321 424 -380 17 -7
32 -17 32 -22 0 -4 26 -18 58 -29 31 -12 73 -33 92 -47 18 -14 42 -25 52 -25
11 0 51 -15 91 -34 40 -18 110 -41 157 -50 47 -10 89 -21 95 -26 12 -10 76
-27 130 -35 135 -20 166 -26 196 -39 115 -48 1066 -49 1157 -2 15 8 79 25 142
37 63 12 126 30 140 39 14 10 50 23 80 30 49 12 95 33 110 50 3 4 25 14 49 24
24 9 57 27 75 40 17 13 41 27 54 31 21 6 139 97 153 117 3 5 20 19 37 31 33
23 191 202 229 259 12 18 32 52 43 76 11 24 31 57 44 75 14 18 30 55 37 82 7
28 20 64 30 80 9 17 25 66 34 110 9 44 26 112 38 150 19 62 21 94 21 295 -1
204 -2 230 -21 275 -12 28 -29 86 -38 130 -17 83 -38 140 -55 150 -5 3 -15 25
-21 48 -6 23 -24 57 -40 75 -16 18 -29 40 -29 48 0 9 -14 29 -32 46 -18 16
-37 39 -43 51 -6 12 -20 27 -32 33 -26 12 -93 81 -93 95 0 5 -15 15 -32 22
-30 12 -34 11 -49 -7 -13 -15 -14 -23 -6 -29 8 -5 4 -7 -8 -5 -49 7 -66 54
-22 60 34 5 35 46 3 54 -37 9 -56 -2 -56 -31 0 -54 -67 -50 -129 8 -22 21 -32
26 -28 14 5 -13 3 -16 -6 -10 -13 8 -18 9 -60 11 -15 1 -35 11 -44 21 -9 11
-21 17 -27 14 -6 -4 -5 1 3 10 12 15 11 17 -8 17 -11 0 -21 4 -21 9 0 8 -28
13 -82 12 -21 0 -26 4 -21 17 5 14 3 15 -8 5 -19 -18 -34 -16 -19 2 17 20 8
28 -32 29 -18 1 -39 5 -45 9 -7 4 -21 4 -30 -1 -10 -5 -40 -6 -68 -2 -27 4
-38 8 -23 9 15 0 29 4 32 9 2 4 -13 6 -35 4 -47 -5 -52 11 -7 24 17 5 33 15
36 22 5 16 -40 16 -56 0 -14 -14 -125 -13 -130 2 -2 5 -15 7 -28 4 -13 -3 -24
-2 -24 3 0 13 -47 34 -84 39 -16 2 -32 8 -36 13 -3 6 -14 9 -25 9 -28 -2 -95
22 -95 33 0 5 16 2 36 -6 47 -19 48 -19 23 6 -16 16 -41 24 -93 29 -39 5 -74
6 -78 4 -5 -3 -8 0 -8 6 0 6 -4 9 -10 5 -5 -3 -21 -3 -35 1 -20 5 -23 9 -13
15 10 7 9 9 -4 9 -10 0 -18 5 -18 11 0 8 13 9 41 5 40 -6 69 7 69 33 0 15 -37
14 -43 -2 -3 -7 -29 -13 -67 -15 -52 -3 -62 -1 -57 11 4 11 0 13 -13 10 -22
-6 -67 22 -51 32 6 3 11 11 11 16 0 6 -5 7 -10 4 -16 -10 -91 5 -84 17 4 6
-10 7 -40 3 -31 -5 -46 -4 -46 4 0 6 6 11 14 11 16 0 31 18 22 27 -3 3 -17 -2
-30 -11 -34 -22 -43 -20 -15 3 28 23 20 38 -11 21 -20 -11 -21 -10 -15 10 4
13 3 21 -1 18 -5 -2 -21 -10 -35 -17 -20 -10 -40 -11 -80 -3 -30 5 -42 10 -27
11 15 0 30 7 34 14 4 6 4 9 -1 5 -4 -4 -15 0 -24 9 -11 12 -13 17 -3 21 6 2
12 11 12 19 0 13 -3 13 -16 2 -13 -11 -15 -9 -9 17 5 25 4 26 -4 7 -13 -29
-25 -30 -16 -2 6 17 4 20 -6 13 -29 -18 -47 -15 -109 16 -8 4 -15 18 -15 31
-1 14 -9 36 -19 49 -16 22 -18 22 -14 5 4 -15 0 -21 -14 -22 -16 -2 -17 1 -8
12 6 8 9 18 6 23 -3 5 4 9 15 8 13 -1 25 -12 32 -29 11 -27 12 -26 14 24 1 28
0 49 -4 46 -3 -4 -20 0 -38 8 -19 7 -36 11 -38 8 -10 -10 -47 18 -47 36 0 15
-12 22 -51 32 -34 9 -57 22 -70 40 -10 14 -32 32 -48 39 -17 7 -33 21 -36 31
-4 11 -23 27 -43 37 -22 10 -38 25 -40 38 -2 12 -15 25 -33 31 -17 7 -33 21
-36 32 -3 11 -16 27 -29 36 -13 8 -31 32 -39 52 -9 20 -24 42 -33 49 -11 7
-24 37 -31 68 -7 31 -16 56 -21 56 -22 0 -42 68 -50 173 -5 62 -14 128 -20
147 -14 49 -13 134 4 210 8 36 21 101 29 145 9 52 24 94 41 119 14 21 26 52
26 67 0 16 12 42 28 61 15 18 33 46 40 61 6 15 20 31 29 34 23 9 42 34 43 55
0 10 13 24 29 32 16 9 31 22 34 30 3 8 24 24 47 36 22 11 40 25 40 30 0 5 22
21 49 35 27 13 65 35 85 49 19 13 52 27 73 31 20 3 62 20 94 35 31 16 81 32
110 35 30 4 79 15 109 25 144 50 590 53 666 5 11 -7 59 -20 105 -28 52 -9 107
-27 143 -46 32 -17 65 -31 75 -31 9 0 33 -14 55 -30 21 -16 51 -32 67 -35 16
-4 41 -20 56 -37 16 -16 43 -37 62 -45 18 -8 35 -23 38 -33 3 -11 14 -22 25
-26 20 -6 235 -217 298 -292 19 -23 44 -52 56 -66 26 -30 104 -153 104 -164 0
-5 14 -24 30 -42 17 -19 33 -46 37 -60 12 -50 44 -101 70 -111 32 -12 33 -11
91 89 26 44 56 95 67 114 51 85 97 167 114 204 11 23 26 44 35 47 9 4 16 12
16 19 0 7 6 25 14 40 23 45 8 89 -40 113 -22 11 -54 30 -71 43 -17 12 -38 22
-46 22 -30 0 -76 22 -82 40 -5 17 -41 30 -123 45 -18 4 -37 15 -42 25 -6 11
-29 24 -53 30 -23 7 -58 24 -77 39 -19 15 -60 33 -90 40 -30 8 -68 23 -83 33
-15 11 -61 28 -102 39 -41 10 -93 28 -115 39 -23 11 -78 26 -123 31 -45 6
-125 24 -178 40 -75 23 -135 33 -270 44 -155 13 -417 17 -569 8z m-460 -2157
c0 -3 -4 -8 -10 -11 -5 -3 -10 -1 -10 4 0 6 5 11 10 11 6 0 10 -2 10 -4z"/>
<path d="M10025 14013 c-33 -5 -65 -29 -65 -48 0 -17 -23 -25 -70 -25 -64 0
-81 -53 -17 -55 29 -2 71 -30 64 -42 -3 -5 1 -22 9 -37 23 -46 19 -49 -46 -43
-57 5 -85 -7 -37 -16 19 -4 18 -4 -6 -6 -15 0 -30 -8 -33 -16 -4 -8 -12 -15
-19 -15 -7 0 -20 -10 -29 -22 -13 -20 -15 -20 -9 -3 5 16 4 18 -8 9 -12 -9
-38 -10 -95 -5 -22 2 -24 31 -4 51 11 11 20 24 20 28 0 5 18 15 40 22 21 7 39
16 38 19 -1 3 2 14 7 24 6 15 10 16 17 5 8 -10 9 -10 5 2 -2 10 -19 16 -45 18
-33 3 -43 -1 -52 -18 -6 -11 -16 -18 -22 -14 -6 4 -8 -2 -3 -17 4 -17 3 -20
-3 -10 -8 11 -16 11 -42 2 -18 -6 -52 -11 -76 -11 -34 0 -46 -5 -61 -25 -14
-19 -30 -27 -68 -31 -72 -9 -75 -14 -61 -111 7 -45 18 -88 24 -96 7 -8 21 -81
32 -161 11 -81 22 -151 25 -156 13 -22 26 -175 35 -420 13 -372 13 -3734 0
-3782 -6 -20 -12 -56 -15 -80 -7 -75 -7 -279 0 -286 11 -12 719 -14 748 -3 25
10 27 15 27 64 0 29 -7 76 -15 104 -20 68 -44 207 -57 323 -5 52 -11 106 -13
120 -19 120 -25 871 -25 2790 0 1026 -4 1554 -11 1613 -6 49 -11 150 -12 225
-2 152 1 146 -72 135z"/>
<path d="M19695 14013 c-148 -2 -276 -5 -283 -8 -10 -4 -7 -13 12 -36 14 -17
26 -36 26 -42 0 -7 6 -55 14 -107 8 -52 12 -107 9 -121 -2 -14 3 -50 11 -80
46 -152 43 -681 -4 -768 -5 -11 -17 -68 -26 -127 -9 -59 -26 -130 -39 -158
-12 -28 -25 -81 -29 -118 -3 -36 -17 -90 -31 -120 -13 -29 -29 -75 -35 -103
-7 -27 -21 -72 -32 -100 -11 -27 -28 -77 -37 -110 -10 -33 -27 -81 -39 -107
-11 -26 -30 -81 -41 -122 -11 -40 -29 -89 -40 -107 -10 -19 -22 -52 -26 -74
-4 -22 -17 -61 -30 -86 -12 -25 -30 -73 -40 -105 -9 -32 -25 -74 -36 -92 -10
-18 -26 -60 -35 -95 -8 -34 -29 -89 -45 -122 -16 -33 -29 -69 -29 -80 0 -12
-9 -39 -21 -60 -21 -41 -71 -172 -114 -301 -13 -38 -35 -92 -49 -119 -14 -26
-26 -58 -26 -70 0 -26 -26 -93 -45 -115 -7 -8 -16 -31 -20 -50 -11 -54 -36
-123 -50 -140 -7 -8 -20 -46 -29 -84 -9 -37 -27 -89 -40 -115 -13 -25 -28 -68
-35 -96 -7 -27 -18 -60 -26 -71 -8 -12 -25 -61 -39 -109 -14 -49 -32 -98 -40
-109 -7 -12 -22 -54 -31 -94 -11 -43 -27 -82 -41 -98 -13 -14 -24 -36 -24 -50
0 -29 -39 -124 -50 -124 -4 0 -15 -30 -24 -67 -9 -38 -21 -80 -27 -95 -12 -30
-72 -70 -92 -62 -16 6 -30 46 -48 129 -7 33 -25 80 -41 104 -15 24 -30 63 -34
87 -4 26 -18 59 -35 80 -16 20 -29 44 -30 53 -3 67 -19 132 -39 160 -10 14
-26 63 -34 109 -9 46 -27 97 -39 115 -13 19 -29 65 -36 103 -7 38 -20 78 -30
89 -20 22 -36 68 -46 132 -4 23 -14 53 -24 65 -21 28 -37 71 -46 120 -3 21
-12 41 -19 45 -12 8 -40 90 -55 163 -4 19 -15 47 -25 62 -10 15 -26 59 -36 98
-10 40 -25 79 -33 88 -15 18 -47 110 -47 135 0 8 -11 31 -25 51 -14 20 -25 47
-25 60 0 33 -34 134 -59 177 -12 20 -26 63 -31 95 -5 31 -14 60 -20 64 -12 7
-44 99 -54 154 -4 22 -16 50 -26 63 -10 12 -26 53 -36 90 -10 38 -26 79 -35
93 -10 14 -25 57 -35 95 -9 39 -27 90 -39 115 -13 25 -29 72 -36 105 -6 33
-24 80 -39 105 -15 25 -31 66 -34 92 -4 26 -18 74 -31 108 -13 34 -27 82 -30
108 -4 26 -17 63 -29 82 -27 42 -42 88 -52 153 -3 27 -12 51 -19 54 -17 6 -31
41 -49 121 -8 35 -19 69 -24 75 -13 17 -40 106 -48 158 -3 24 -14 56 -25 70
-10 15 -25 58 -34 95 -9 38 -27 91 -40 119 -13 27 -27 73 -30 100 -9 70 -25
115 -47 139 -28 29 -38 60 -38 112 0 42 -24 84 -49 84 -5 0 -13 29 -16 65 -4
37 -12 65 -19 66 -6 0 -42 0 -81 -1 -53 -1 -73 -5 -83 -18 -11 -14 -10 -18 5
-20 10 -2 22 -8 28 -13 5 -5 18 -9 28 -9 16 0 19 -5 14 -32 -3 -18 -3 -27 0
-20 8 21 21 13 16 -10 -4 -19 -3 -20 6 -8 6 8 11 11 11 7 0 -5 -13 -22 -30
-39 -16 -16 -30 -37 -30 -46 0 -12 4 -10 13 7 6 14 17 26 23 28 16 5 26 -25
12 -33 -7 -4 -8 -3 -4 4 4 7 3 12 -3 12 -6 0 -13 -22 -17 -50 -7 -52 -11 -55
-64 -50 -14 2 -46 3 -73 4 -32 0 -46 5 -43 13 3 7 -3 10 -15 8 -15 -3 -19 0
-15 11 4 10 2 13 -6 8 -8 -5 -9 -2 -5 10 5 11 3 15 -5 10 -8 -5 -9 -2 -5 10 5
11 3 15 -5 10 -8 -5 -9 -1 -4 12 6 15 5 17 -5 7 -17 -17 -26 -16 -33 3 -4 10
1 26 11 38 17 20 17 20 0 7 -14 -11 -23 -11 -42 -3 -34 16 -31 27 7 27 17 0
33 6 36 13 3 11 0 12 -18 2 -16 -9 -25 -9 -33 -1 -8 8 -5 11 10 11 12 0 25 5
28 10 4 6 11 7 17 4 8 -5 9 -1 4 12 -5 10 -11 27 -13 37 -5 17 -6 17 -19 0
-13 -17 -14 -17 -7 1 5 15 3 18 -10 13 -9 -3 -17 -2 -17 2 0 8 -107 13 -300
15 l-65 1 1 -44 c1 -25 7 -49 15 -55 29 -22 49 -66 49 -107 0 -25 7 -50 16
-60 9 -10 18 -33 20 -50 6 -52 25 -111 49 -159 13 -25 29 -63 36 -85 6 -21 27
-68 45 -103 19 -36 34 -72 34 -80 0 -8 11 -34 24 -56 13 -23 32 -68 41 -101
10 -33 23 -67 30 -75 7 -8 21 -40 30 -70 26 -84 37 -114 50 -130 7 -8 20 -42
30 -75 9 -33 24 -73 34 -90 9 -16 28 -64 41 -105 13 -41 29 -82 35 -90 7 -8
25 -52 39 -97 15 -46 32 -85 36 -88 5 -3 19 -37 30 -74 11 -38 28 -79 38 -92
10 -13 25 -46 32 -74 7 -27 25 -73 40 -101 15 -28 31 -66 35 -85 4 -19 18 -54
30 -79 13 -25 31 -70 41 -100 9 -30 23 -62 29 -70 7 -8 24 -55 39 -104 14 -49
32 -96 39 -105 8 -9 20 -38 26 -66 7 -27 25 -77 40 -110 16 -33 34 -82 41
-110 7 -27 19 -57 25 -65 21 -26 42 -74 48 -110 3 -19 19 -65 36 -101 16 -36
34 -84 40 -108 5 -23 16 -50 25 -60 8 -9 23 -50 32 -91 9 -41 25 -94 35 -117
11 -23 27 -65 35 -95 9 -29 23 -64 31 -77 8 -13 24 -53 34 -89 10 -36 30 -87
44 -113 14 -27 25 -59 25 -71 0 -13 18 -61 40 -108 22 -47 40 -94 40 -105 0
-11 13 -47 29 -80 16 -33 33 -78 37 -100 4 -22 19 -65 34 -95 15 -30 35 -84
45 -120 9 -36 23 -72 30 -80 7 -8 23 -51 35 -95 12 -43 31 -95 41 -114 10 -19
23 -59 30 -90 6 -31 19 -72 29 -92 10 -19 28 -64 40 -99 30 -89 86 -196 107
-205 10 -4 126 -9 258 -12 194 -3 244 -2 259 10 19 14 37 55 60 138 7 25 25
69 39 96 14 28 31 77 37 109 7 33 25 88 40 124 16 36 32 83 36 105 4 22 15 52
25 66 10 14 23 46 28 70 13 56 32 109 65 181 14 31 26 63 26 71 0 8 11 35 24
60 14 25 32 74 42 109 9 34 23 73 30 85 8 13 26 60 40 105 15 46 34 99 44 118
9 19 23 58 29 85 7 28 21 65 32 83 11 19 28 65 39 104 11 39 24 75 29 82 5 6
21 45 34 86 14 41 36 100 50 130 13 30 29 78 36 105 7 28 21 64 30 80 10 17
26 62 35 100 10 39 24 80 32 93 8 13 27 58 41 100 14 42 31 86 38 97 7 11 21
47 30 80 9 33 25 75 36 93 10 18 24 54 30 80 6 26 22 65 34 87 13 22 29 63 38
90 8 28 28 82 44 120 17 39 33 88 37 110 4 22 18 58 31 80 12 22 28 63 35 90
24 94 81 260 104 305 13 25 27 65 31 90 4 25 17 63 30 85 12 22 28 65 35 95 7
30 23 73 35 95 13 23 31 70 40 105 9 35 27 84 39 109 13 25 29 69 36 96 7 28
21 61 30 75 20 31 37 74 45 120 4 19 15 49 25 65 10 17 28 64 39 105 12 41 30
91 41 110 16 31 47 142 54 195 1 11 10 34 18 50 9 17 19 64 23 105 5 56 13 83
31 107 13 17 24 36 24 41 0 10 -53 24 -74 20 -6 -2 -132 -4 -281 -5z m-3770
-72 c-3 -6 -11 -11 -16 -11 -5 0 -4 6 3 14 14 16 24 13 13 -3z m-55 -31 c0 -5
-5 -10 -11 -10 -5 0 -7 5 -4 10 3 6 8 10 11 10 2 0 4 -4 4 -10z m-3 -86 c-3
-3 -12 -4 -19 -1 -8 3 -5 6 6 6 11 1 17 -2 13 -5z m375 -56 c-7 -7 -12 -8 -12
-2 0 14 12 26 19 19 2 -3 -1 -11 -7 -17z m-263 -43 c0 -5 -6 1 -14 15 -8 14
-14 30 -14 35 0 6 6 -1 14 -15 8 -14 14 -29 14 -35z"/>
<path d="M15950 13992 c0 -18 12 -42 21 -42 14 0 11 20 -6 36 -8 9 -15 11 -15
6z"/>
<path d="M16022 13985 c3 -3 14 -8 24 -10 11 -2 29 -7 40 -10 14 -5 23 -1 27
9 5 13 -2 16 -45 16 -28 0 -49 -2 -46 -5z"/>
<path d="M15940 13830 c-9 -6 -10 -10 -3 -10 6 0 15 5 18 10 8 12 4 12 -15 0z"/>
<path d="M9870 13790 c8 -5 22 -9 30 -9 10 0 8 3 -5 9 -27 12 -43 12 -25 0z"/>
<path d="M26380 11931 c0 -6 -7 -8 -15 -5 -10 4 -15 0 -15 -11 0 -9 5 -13 10
-10 6 3 10 1 10 -6 0 -7 7 -4 15 7 8 10 15 14 15 7 0 -6 9 -10 20 -8 11 2 20
0 20 -4 0 -4 11 -13 25 -19 23 -11 25 -10 25 13 0 29 -3 31 -62 39 -31 5 -48
4 -48 -3z"/>
<path d="M26496 11854 c-11 -28 -7 -36 14 -31 24 6 25 -2 5 -29 -19 -25 -19
-40 0 -24 8 7 15 19 15 26 0 12 52 21 91 16 11 -2 18 37 9 43 -5 3 -36 8 -68
11 -49 4 -61 2 -66 -12z"/>
<path d="M26700 11771 c0 -29 83 -44 108 -19 9 9 12 9 12 0 0 -7 7 -12 15 -12
20 0 19 39 -1 47 -9 3 -20 0 -24 -7 -5 -8 -9 -9 -14 -1 -11 18 -54 13 -59 -6
-4 -17 -5 -17 -6 0 -1 23 -31 22 -31 -2z"/>
<path d="M26535 11769 c-11 -17 1 -21 15 -4 8 9 8 15 2 15 -6 0 -14 -5 -17
-11z"/>
<path d="M26877 11708 c-5 -16 22 -37 46 -38 14 0 17 5 12 20 -6 20 -6 20 27
3 37 -20 88 -19 88 2 0 19 -23 25 -100 25 -46 0 -70 -4 -73 -12z"/>
<path d="M27080 11641 c0 -16 28 -32 67 -38 21 -3 44 -11 52 -17 11 -8 15 -8
18 2 3 6 13 12 23 12 22 0 35 30 18 42 -18 11 -178 10 -178 -1z m140 -25 c0
-3 -4 -8 -10 -11 -5 -3 -10 -1 -10 4 0 6 5 11 10 11 6 0 10 -2 10 -4z"/>
<path d="M27294 11566 c-3 -8 -1 -23 5 -34 7 -14 18 -18 43 -15 18 3 40 7 48
11 8 3 24 6 35 6 29 1 31 32 3 40 -45 12 -128 7 -134 -8z"/>
<path d="M27189 11509 l-22 -17 41 -7 c43 -7 82 0 82 15 0 27 -69 33 -101 9z"/>
<path d="M27483 11503 c-17 -6 -16 -48 1 -62 10 -9 16 -8 26 4 7 8 19 15 26
15 8 0 14 5 14 12 0 9 3 9 11 1 12 -12 39 -6 51 11 5 7 8 7 8 -1 0 -7 7 -13
15 -13 18 0 20 14 3 27 -18 14 -78 15 -93 3 -9 -8 -15 -8 -20 0 -6 11 -21 12
-42 3z"/>
<path d="M27425 11444 c-23 -17 -15 -27 18 -22 22 3 24 5 13 19 -10 15 -14 15
-31 3z"/>
<path d="M27680 11446 c0 -3 5 -16 11 -29 10 -22 17 -24 79 -25 71 -2 93 9 69
33 -13 13 -159 32 -159 21z"/>
<path d="M27348 11423 c7 -3 16 -2 19 1 4 3 -2 6 -13 5 -11 0 -14 -3 -6 -6z"/>
<path d="M27860 11361 c0 -12 17 -23 39 -26 9 -1 29 -5 44 -9 22 -7 31 -4 42
10 12 16 11 20 -3 26 -26 10 -122 9 -122 -1z"/>
<path d="M28011 11301 c-10 -7 -11 -13 -2 -30 12 -21 41 -28 55 -14 4 4 15 8
23 8 28 0 25 22 -4 28 -15 3 -35 8 -43 11 -8 3 -21 2 -29 -3z"/>
<path d="M28180 11207 c0 -8 16 -18 35 -24 31 -10 35 -9 35 7 0 10 -7 21 -16
24 -27 10 -54 7 -54 -7z"/>
<path d="M28190 11116 c0 -9 30 -14 35 -6 4 6 -3 10 -14 10 -12 0 -21 -2 -21
-4z"/>
<path d="M25344 9736 c-3 -9 -3 -23 0 -32 3 -8 2 -12 -4 -9 -6 3 -10 1 -10 -4
0 -6 16 -11 36 -11 30 0 35 3 32 21 -2 12 -13 28 -25 36 -20 14 -23 14 -29 -1z"/>
<path d="M25280 9677 c0 -9 -4 -17 -9 -17 -5 0 -11 -9 -14 -20 -3 -11 -1 -20
5 -20 5 0 6 -4 3 -10 -9 -14 19 -12 33 2 16 16 15 39 -3 62 -13 17 -15 18 -15
3z"/>
<path d="M25412 9640 c0 -14 2 -19 5 -12 2 6 2 18 0 25 -3 6 -5 1 -5 -13z"/>
</g>
</svg>
